<svg xmlns="http://www.w3.org/2000/svg" viewBox="0 0 56 50.99"><defs><style>.cls-1{fill:#232f3e;}</style></defs><title>product-icon_Amazon_Aurora</title><g id="ICONS_-_EDIT" data-name="ICONS - EDIT"><path class="cls-1" d="M16,17.4c-7.74,0-16-2.35-16-6.7S8.23,4,16,4s16,2.35,16,6.7S23.71,17.4,16,17.4ZM16,6C8,6,2,8.48,2,10.7s6,4.7,14,4.7,14-2.48,14-4.7S24,6,16,6Z"/><rect class="cls-1" x="30" y="11" width="2" height="17"/><path class="cls-1" d="M16,49.9c-7.74,0-16-2.33-16-6.63V11H2V43.27c0,2.19,6,4.65,14,4.65s14-2.46,14-4.65V40h2v3.27C32,47.57,23.72,49.9,16,49.9Z"/><path class="cls-1" d="M16,28.7C8.23,28.7,0,26.35,0,22H2c0,2.22,6,4.7,14,4.7S30,24.22,30,22h2C32,26.35,23.73,28.7,16,28.7Z"/><path class="cls-1" d="M16.05,39.7c-7.75,0-16-2.35-16-6.7h2c0,2.22,6,4.7,14,4.7a31.07,31.07,0,0,0,9.65-1.4l.65,1.9A33.16,33.16,0,0,1,16.05,39.7Z"/><path class="cls-1" d="M39.44,50.75a1,1,0,0,1-1-1C38.44,42.86,30.59,35,23.7,35a1,1,0,0,1,0-2c6.89,0,14.74-7.86,14.74-14.75a1,1,0,0,1,2,0C40.44,25.14,48.3,33,55.19,33a1,1,0,0,1,0,2c-6.89,0-14.75,7.86-14.75,14.75A1,1,0,0,1,39.44,50.75ZM28.57,34A20.48,20.48,0,0,1,39.44,44.88,20.54,20.54,0,0,1,50.32,34,20.54,20.54,0,0,1,39.44,23.12,20.48,20.48,0,0,1,28.57,34Z"/><rect class="cls-1" x="44" y="10" width="2" height="6"/><rect class="cls-1" x="42" y="12" width="6" height="2"/><rect class="cls-1" x="33" width="2" height="6"/><rect class="cls-1" x="31" y="2" width="6" height="2"/></g></svg>